<svg width="30" height="30" viewBox="0 0 30 30" fill="none" xmlns="http://www.w3.org/2000/svg">
<path d="M21.25 25C20.8958 25 20.5988 24.88 20.3588 24.64C20.1188 24.4 19.9992 24.1033 20 23.75V20H16.25C15.8958 20 15.5988 19.88 15.3588 19.64C15.1188 19.4 14.9992 19.1033 15 18.75C15 18.3958 15.12 18.0988 15.36 17.8588C15.6 17.6188 15.8967 17.4992 16.25 17.5H20V13.75C20 13.3958 20.12 13.0988 20.36 12.8588C20.6 12.6188 20.8967 12.4992 21.25 12.5C21.6042 12.5 21.9013 12.62 22.1413 12.86C22.3813 13.1 22.5008 13.3967 22.5 13.75V17.5H26.25C26.6042 17.5 26.9013 17.62 27.1413 17.86C27.3813 18.1 27.5008 18.3967 27.5 18.75C27.5 19.1042 27.38 19.4013 27.14 19.6413C26.9 19.8813 26.6033 20.0008 26.25 20H22.5V23.75C22.5 24.1042 22.38 24.4013 22.14 24.6413C21.9 24.8813 21.6033 25.0008 21.25 25ZM5 20C4.64584 20 4.34875 19.88 4.10875 19.64C3.86875 19.4 3.74917 19.1033 3.75 18.75C3.75 18.3958 3.87 18.0988 4.11 17.8588C4.35 17.6188 4.64667 17.4992 5 17.5H11.25C11.6042 17.5 11.9013 17.62 12.1413 17.86C12.3813 18.1 12.5008 18.3967 12.5 18.75C12.5 19.1042 12.38 19.4013 12.14 19.6413C11.9 19.8813 11.6033 20.0008 11.25 20H5ZM5 15C4.64584 15 4.34875 14.88 4.10875 14.64C3.86875 14.4 3.74917 14.1033 3.75 13.75C3.75 13.3958 3.87 13.0988 4.11 12.8588C4.35 12.6188 4.64667 12.4992 5 12.5H16.25C16.6042 12.5 16.9013 12.62 17.1413 12.86C17.3813 13.1 17.5008 13.3967 17.5 13.75C17.5 14.1042 17.38 14.4013 17.14 14.6413C16.9 14.8813 16.6033 15.0008 16.25 15H5ZM5 10C4.64584 10 4.34875 9.88 4.10875 9.64C3.86875 9.4 3.74917 9.10334 3.75 8.75C3.75 8.39584 3.87 8.09875 4.11 7.85875C4.35 7.61875 4.64667 7.49917 5 7.5H16.25C16.6042 7.5 16.9013 7.62 17.1413 7.86C17.3813 8.1 17.5008 8.39667 17.5 8.75C17.5 9.10417 17.38 9.40125 17.14 9.64125C16.9 9.88125 16.6033 10.0008 16.25 10H5Z" fill="white"/>
</svg>
