<svg width="65" height="65" viewBox="0 0 65 65" fill="none" xmlns="http://www.w3.org/2000/svg">
<path d="M26.9993 1.94938e-06C22.4649 -0.00175369 18.0089 1.18238 14.0736 3.43487C10.1382 5.68735 6.8604 8.92987 4.5654 12.8406C2.27041 16.7513 1.03806 21.1942 0.990688 25.7284C0.943313 30.2625 2.08255 34.7302 4.29533 38.688L1.11534 47.016C0.850651 47.7083 0.783511 48.4605 0.921404 49.1887C1.0593 49.9169 1.3968 50.5925 1.89626 51.1401C2.39573 51.6877 3.03751 52.0857 3.75 52.2898C4.4625 52.4939 5.21769 52.4961 5.93133 52.296L15.8793 49.508C19.4031 51.173 23.2562 52.0245 27.1534 51.9995C31.0507 51.9745 34.8925 51.0737 38.3946 49.3636C41.8968 47.6536 44.9697 45.1781 47.3861 42.1203C49.8025 39.0625 51.5006 35.5005 52.3547 31.6979C53.2088 27.8953 53.1971 23.9493 52.3205 20.1518C51.4438 16.3544 49.7247 12.8025 47.2902 9.75909C44.8558 6.71563 41.7682 4.25841 38.256 2.56917C34.7437 0.879932 30.8967 0.00189433 26.9993 1.94938e-06ZM26.9673 15.604C25.5353 15.884 23.9673 16.812 22.7353 18.988C22.6056 19.2165 22.4321 19.4172 22.2248 19.5787C22.0175 19.7401 21.7804 19.8592 21.5271 19.929C21.2738 19.9988 21.0092 20.0181 20.7484 19.9856C20.4877 19.9532 20.2358 19.8697 20.0073 19.74C19.7788 19.6103 19.5781 19.4368 19.4167 19.2295C19.2552 19.0221 19.1362 18.7851 19.0663 18.5317C18.9965 18.2784 18.9773 18.0138 19.0097 17.7531C19.0421 17.4923 19.1256 17.2405 19.2553 17.012C21.0193 13.908 23.5273 12.2 26.1993 11.68C28.6855 11.21 31.257 11.7281 33.3673 13.124C35.3033 14.404 36.8673 16.496 36.9153 19.004C36.9673 21.624 35.3753 23.988 32.4393 25.724C30.4473 26.9 29.6713 27.7 29.3393 28.232C29.0593 28.68 28.9993 29.088 28.9993 30C28.9993 30.5304 28.7886 31.0391 28.4135 31.4142C28.0385 31.7893 27.5298 32 26.9993 32C26.4689 32 25.9602 31.7893 25.5851 31.4142C25.21 31.0391 24.9993 30.5304 24.9993 30C24.9993 28.912 25.0553 27.56 25.9473 26.12C26.7873 24.772 28.2233 23.572 30.4073 22.28C32.5473 21.012 32.9353 19.808 32.9233 19.088C32.9073 18.26 32.3553 17.248 31.1633 16.46C29.9292 15.6435 28.4268 15.3367 26.9713 15.604H26.9673ZM27.9953 42C27.1997 42 26.4366 41.6839 25.874 41.1213C25.3114 40.5587 24.9953 39.7957 24.9953 39C24.9953 38.2044 25.3114 37.4413 25.874 36.8787C26.4366 36.3161 27.1997 36 27.9953 36C28.791 36 29.554 36.3161 30.1167 36.8787C30.6793 37.4413 30.9953 38.2044 30.9953 39C30.9953 39.7957 30.6793 40.5587 30.1167 41.1213C29.554 41.6839 28.791 42 27.9953 42ZM19.1393 54.96C21.5777 57.7994 24.6016 60.0775 28.0035 61.6379C31.4054 63.1983 35.1046 64.0041 38.8473 64C42.8193 64 46.5913 63.108 49.9673 61.508L59.9113 64.296C60.625 64.4961 61.3802 64.4939 62.0927 64.2898C62.8052 64.0857 63.4469 63.6877 63.9464 63.1401C64.4459 62.5925 64.7834 61.9169 64.9213 61.1887C65.0592 60.4605 64.992 59.7083 64.7273 59.016L61.5473 50.688C63.7162 46.8113 64.8526 42.4422 64.8473 38C64.8473 30.24 61.4473 23.272 56.0513 18.508C56.643 20.8118 56.9585 23.1777 56.9913 25.556C59.4233 29.096 60.8473 33.384 60.8473 38C60.8473 42.2 59.6713 46.124 57.6273 49.464L57.1153 50.304L60.9953 60.444L49.5553 57.244L48.8553 57.596C45.8553 59.132 42.4553 60 38.8473 60C34.3111 60.0069 29.8846 58.6051 26.1793 55.988C23.8002 55.9258 21.4369 55.5807 19.1393 54.96Z" fill="#999999"/>
</svg>
