<svg width="60" height="60" viewBox="0 0 60 60" fill="none" xmlns="http://www.w3.org/2000/svg">
<path d="M30 5C33.283 5 36.5339 5.64664 39.5671 6.90301C42.6002 8.15938 45.3562 10.0009 47.6777 12.3223C49.9991 14.6438 51.8406 17.3998 53.097 20.4329C54.3534 23.4661 55 26.717 55 30C55 36.6304 52.3661 42.9893 47.6777 47.6777C42.9893 52.3661 36.6304 55 30 55C26.717 55 23.4661 54.3534 20.4329 53.097C17.3998 51.8406 14.6438 49.9991 12.3223 47.6777C7.63392 42.9893 5 36.6304 5 30C5 23.3696 7.63392 17.0107 12.3223 12.3223C17.0107 7.63392 23.3696 5 30 5ZM42.5 40V37.5L40 35V28.475C40 25.75 39.325 23.35 38.025 21.325C36.75 19.3 34.9 18.025 32.5 17.5V16.25C32.5 15.587 32.2366 14.9511 31.7678 14.4822C31.2989 14.0134 30.663 13.75 30 13.75C29.337 13.75 28.7011 14.0134 28.2322 14.4822C27.7634 14.9511 27.5 15.587 27.5 16.25V17.5C25.1 18.025 23.25 19.3 21.975 21.325C20.675 23.35 20 25.75 20 28.475V35L17.5 37.5V40H42.5ZM33.75 42.5H26.25C26.25 43.4946 26.6451 44.4484 27.3483 45.1516C28.0516 45.8549 29.0054 46.25 30 46.25C30.9946 46.25 31.9484 45.8549 32.6517 45.1516C33.3549 44.4484 33.75 43.4946 33.75 42.5Z" fill="#103479"/>
</svg>
