<svg width="50" height="50" viewBox="0 0 50 50" fill="none" xmlns="http://www.w3.org/2000/svg">
<path d="M11.4587 8.33329C10.6299 8.33329 9.835 8.66253 9.24895 9.24858C8.6629 9.83464 8.33366 10.6295 8.33366 11.4583V16.6666C8.33366 17.2192 8.11417 17.7491 7.72346 18.1398C7.33276 18.5305 6.80286 18.75 6.25033 18.75C5.69779 18.75 5.16789 18.5305 4.77719 18.1398C4.38649 17.7491 4.16699 17.2192 4.16699 16.6666V11.4583C4.16699 9.52442 4.93522 7.66976 6.30267 6.30231C7.67012 4.93485 9.52479 4.16663 11.4587 4.16663H16.667C17.2195 4.16663 17.7494 4.38612 18.1401 4.77682C18.5308 5.16752 18.7503 5.69743 18.7503 6.24996C18.7503 6.80249 18.5308 7.3324 18.1401 7.7231C17.7494 8.1138 17.2195 8.33329 16.667 8.33329H11.4587ZM11.4587 41.6666C10.6299 41.6666 9.835 41.3374 9.24895 40.7513C8.6629 40.1653 8.33366 39.3704 8.33366 38.5416V33.3333C8.33366 32.7808 8.11417 32.2509 7.72346 31.8602C7.33276 31.4695 6.80286 31.25 6.25033 31.25C5.69779 31.25 5.16789 31.4695 4.77719 31.8602C4.38649 32.2509 4.16699 32.7808 4.16699 33.3333V38.5416C4.16699 40.4755 4.93522 42.3302 6.30267 43.6976C7.67012 45.0651 9.52479 45.8333 11.4587 45.8333H16.667C17.2195 45.8333 17.7494 45.6138 18.1401 45.2231C18.5308 44.8324 18.7503 44.3025 18.7503 43.75C18.7503 43.1974 18.5308 42.6675 18.1401 42.2768C17.7494 41.8861 17.2195 41.6666 16.667 41.6666H11.4587ZM41.667 11.4583C41.667 10.6295 41.3378 9.83464 40.7517 9.24858C40.1656 8.66253 39.3708 8.33329 38.542 8.33329H33.3337C32.7811 8.33329 32.2512 8.1138 31.8605 7.7231C31.4698 7.3324 31.2503 6.80249 31.2503 6.24996C31.2503 5.69743 31.4698 5.16752 31.8605 4.77682C32.2512 4.38612 32.7811 4.16663 33.3337 4.16663H38.542C40.4759 4.16663 42.3305 4.93485 43.698 6.30231C45.0654 7.66976 45.8337 9.52442 45.8337 11.4583V16.6666C45.8337 17.2192 45.6142 17.7491 45.2235 18.1398C44.8328 18.5305 44.3029 18.75 43.7503 18.75C43.1978 18.75 42.6679 18.5305 42.2772 18.1398C41.8865 17.7491 41.667 17.2192 41.667 16.6666V11.4583ZM38.542 41.6666C39.3708 41.6666 40.1656 41.3374 40.7517 40.7513C41.3378 40.1653 41.667 39.3704 41.667 38.5416V33.3333C41.667 32.7808 41.8865 32.2509 42.2772 31.8602C42.6679 31.4695 43.1978 31.25 43.7503 31.25C44.3029 31.25 44.8328 31.4695 45.2235 31.8602C45.6142 32.2509 45.8337 32.7808 45.8337 33.3333V38.5416C45.8337 40.4755 45.0654 42.3302 43.698 43.6976C42.3305 45.0651 40.4759 45.8333 38.542 45.8333H33.3337C32.7811 45.8333 32.2512 45.6138 31.8605 45.2231C31.4698 44.8324 31.2503 44.3025 31.2503 43.75C31.2503 43.1974 31.4698 42.6675 31.8605 42.2768C32.2512 41.8861 32.7811 41.6666 33.3337 41.6666H38.542ZM16.1462 12.5C15.5936 12.5 15.0637 12.7195 14.673 13.1102C14.2823 13.5009 14.0628 14.0308 14.0628 14.5833V17.7083C14.0628 18.2608 14.2823 18.7907 14.673 19.1814C15.0637 19.5721 15.5936 19.7916 16.1462 19.7916C16.6987 19.7916 17.2286 19.5721 17.6193 19.1814C18.01 18.7907 18.2295 18.2608 18.2295 17.7083V16.6666H22.917V33.3333H20.3128C19.7603 33.3333 19.2304 33.5528 18.8397 33.9435C18.449 34.3342 18.2295 34.8641 18.2295 35.4166C18.2295 35.9692 18.449 36.4991 18.8397 36.8898C19.2304 37.2805 19.7603 37.5 20.3128 37.5H29.6878C30.2404 37.5 30.7703 37.2805 31.161 36.8898C31.5517 36.4991 31.7712 35.9692 31.7712 35.4166C31.7712 34.8641 31.5517 34.3342 31.161 33.9435C30.7703 33.5528 30.2404 33.3333 29.6878 33.3333H27.0837V16.6666H31.7712V17.7083C31.7712 18.2608 31.9907 18.7907 32.3814 19.1814C32.7721 19.5721 33.302 19.7916 33.8545 19.7916C34.407 19.7916 34.9369 19.5721 35.3276 19.1814C35.7183 18.7907 35.9378 18.2608 35.9378 17.7083V14.5833C35.9378 14.0308 35.7183 13.5009 35.3276 13.1102C34.9369 12.7195 34.407 12.5 33.8545 12.5H16.1462Z" fill="#5A62AA"/>
</svg>
