<svg width="24" height="22" viewBox="0 0 24 22" fill="none" xmlns="http://www.w3.org/2000/svg">
<path d="M4.5 15.3881H19.5V2.81246H6C5.60218 2.81246 5.22064 2.95192 4.93934 3.20018C4.65804 3.44843 4.5 3.78513 4.5 4.13621V15.3881ZM6 1.48871H20.25C20.4489 1.48871 20.6397 1.55844 20.7803 1.68257C20.921 1.80669 21 1.97504 21 2.15058V16.05C21 16.2255 20.921 16.3938 20.7803 16.518C20.6397 16.6421 20.4489 16.7118 20.25 16.7118H3.75L3 17.9019V4.13621C3 3.43405 3.31607 2.76065 3.87868 2.26414C4.44129 1.76764 5.20435 1.48871 6 1.48871Z" fill="white"/>
<path d="M5.625 16.7118C5.32663 16.7118 5.04048 16.8164 4.8295 17.0026C4.61853 17.1888 4.5 17.4413 4.5 17.7046C4.5 17.968 4.61853 18.2205 4.8295 18.4067C5.04048 18.5929 5.32663 18.6975 5.625 18.6975H19.5V16.7118H5.625ZM5.625 15.3881H21V18.6975C21 19.0485 20.842 19.3852 20.5607 19.6335C20.2794 19.8817 19.8978 20.0212 19.5 20.0212H5.625C4.92881 20.0212 4.26113 19.7771 3.76884 19.3427C3.27656 18.9083 3 18.319 3 17.7046C3 17.0903 3.27656 16.501 3.76884 16.0666C4.26113 15.6321 4.92881 15.3881 5.625 15.3881ZM9 2.81246V8.00156L11.25 6.41306L13.5 8.00156V2.81246H9ZM7.5 1.48871H15V9.37826C14.9998 9.5028 14.9598 9.62477 14.8846 9.73014C14.8093 9.83552 14.7019 9.92002 14.5747 9.97394C14.4475 10.0279 14.3056 10.049 14.1654 10.035C14.0252 10.0209 13.8923 9.97224 13.782 9.89452L11.25 8.10746L8.718 9.89452C8.60772 9.97224 8.47483 10.0209 8.3346 10.035C8.19438 10.049 8.0525 10.0279 7.92529 9.97394C7.79807 9.92002 7.69068 9.83552 7.61545 9.73014C7.54022 9.62477 7.5002 9.5028 7.5 9.37826V1.48871Z" fill="white"/>
</svg>
