<svg xmlns="http://www.w3.org/2000/svg" xmlns:xlink="http://www.w3.org/1999/xlink" width="500" zoomAndPan="magnify" viewBox="0 0 375 37.5" height="50" preserveAspectRatio="xMidYMid meet" version="1.0"><defs><clipPath id="ca1c57365f"><path d="M 2.46875 0 L 372.53125 0 L 372.53125 37.007812 L 2.46875 37.007812 Z M 2.46875 0 " clip-rule="nonzero"/></clipPath></defs><g clip-path="url(#ca1c57365f)"><path fill="#ffffff" d="M 2.46875 0 L 372.53125 0 L 372.53125 44.40625 L 2.46875 44.40625 Z M 2.46875 0 " fill-opacity="1" fill-rule="nonzero"/><path fill="#ffffff" d="M 2.46875 0 L 372.53125 0 L 372.53125 37.007812 L 2.46875 37.007812 Z M 2.46875 0 " fill-opacity="1" fill-rule="nonzero"/><path fill="#ffffff" d="M 2.46875 0 L 372.53125 0 L 372.53125 37.007812 L 2.46875 37.007812 Z M 2.46875 0 " fill-opacity="1" fill-rule="nonzero"/></g><path fill="#ff914d" d="M 229.125 15.878906 C 228.132812 13.894531 225.203125 15.648438 226.199219 17.621094 C 226.300781 17.816406 226.0625 18.140625 225.847656 18.246094 C 225.734375 18.152344 225.585938 17.957031 225.554688 17.898438 C 225.28125 17.542969 225.023438 17.195312 224.773438 16.816406 C 223.789062 15.339844 222.75 13.746094 220.949219 13.273438 C 216.980469 12.210938 214.371094 16.757812 211.058594 18.003906 C 209.847656 18.464844 206.792969 19.097656 205.921875 17.738281 C 205.460938 17.023438 205.503906 15.855469 205.1875 15.050781 C 204.882812 14.230469 204.441406 13.480469 203.820312 12.871094 C 201.59375 10.703125 198.167969 11.277344 195.734375 12.753906 C 192.320312 14.820312 189.652344 17.96875 186.125 19.882812 C 184.9375 20.527344 182.507812 21.714844 181.332031 20.484375 C 180.742188 19.859375 180.550781 18.796875 180.222656 18.015625 C 179.847656 17.136719 179.351562 16.328125 178.648438 15.695312 C 175.925781 13.203125 172.316406 14.507812 169.808594 16.574219 C 169.117188 17.136719 168.460938 17.761719 167.804688 18.371094 C 167.070312 19.050781 166.109375 19.582031 165.410156 20.273438 C 165.410156 19.988281 165.363281 19.664062 165.351562 19.375 C 165.339844 18.464844 165.398438 17.550781 165.308594 16.652344 C 164.890625 12.292969 160.707031 9.835938 156.996094 12.351562 C 154.984375 13.710938 153.355469 15.695312 151.660156 17.425781 C 149.648438 19.492188 147.621094 21.542969 145.609375 23.609375 C 144.0625 25.1875 146.457031 27.632812 148.007812 26.054688 C 149.828125 24.195312 151.648438 22.328125 153.480469 20.472656 C 155.109375 18.808594 156.667969 16.871094 158.535156 15.476562 C 159.9375 14.425781 161.472656 14.519531 161.894531 16.492188 C 162.265625 18.210938 161.710938 20.007812 162.253906 21.714844 C 163.804688 26.652344 168.859375 22.0625 170.882812 20.207031 C 172.046875 19.132812 173.515625 17.621094 175.234375 17.785156 C 177.054688 17.945312 177.316406 20.125 177.960938 21.496094 C 179.894531 25.59375 184.609375 24.636719 187.832031 22.882812 C 191.449219 20.921875 194.140625 17.5625 197.726562 15.59375 C 198.6875 15.0625 200.121094 14.542969 201.164062 15.152344 C 202.621094 16.007812 202.292969 18.53125 203.222656 19.859375 C 205.503906 23.171875 211.136719 22.085938 214.019531 20.378906 C 215.046875 19.765625 215.953125 18.960938 216.902344 18.222656 C 217.648438 17.632812 218.566406 16.792969 219.527344 16.628906 C 221.164062 16.363281 222.296875 19.492188 223.269531 20.492188 C 226.355469 23.699219 231.015625 19.640625 229.125 15.878906 Z M 229.125 15.878906 " fill-opacity="1" fill-rule="nonzero"/></svg>