<svg width="104" height="126" viewBox="0 0 104 126" fill="none" xmlns="http://www.w3.org/2000/svg">
<g clip-path="url(#clip0_553_50)">
<path d="M34.4933 38.0993C40.547 32.6025 49.0187 30.1665 57.2347 32.2245C62.6253 33.579 68.8913 36.3825 73.8617 42.6825C78.9057 49.0718 82.1383 58.4535 82.329 71.8095C82.4937 83.2335 78.0347 95.5395 72.0503 104.002C69.0343 108.271 65.4073 111.893 61.4337 113.873C57.3733 115.904 52.7887 116.282 48.464 113.568C44.5943 111.143 42.0463 107.982 40.794 104.045C39.5893 100.27 39.8277 96.5265 40.209 93.5865L40.3823 92.3737L40.872 89.3812C41.0887 88.0687 41.2577 86.9715 41.3443 85.9582C41.5177 83.9475 41.3097 82.8975 40.911 82.1468C39.949 80.3408 38.727 79.2592 36.9243 77.8418L34.5453 75.978L33.3927 75.0225C30.6627 72.6548 27.768 69.2842 26.572 63.2677C24.4703 52.7415 28.3487 43.6852 34.4933 38.0993ZM55.4797 42.5093C49.6513 41.0498 43.7233 42.84 39.689 46.4993C35.7543 50.0745 33.8607 55.1145 34.996 60.8055C35.5333 63.4987 36.673 64.9897 38.6317 66.6488L39.8277 67.6095L41.8687 69.1845C43.9573 70.8488 46.4187 73.122 48.1953 76.461C50.1237 80.0835 50.232 83.9265 49.9633 87.045C49.8733 88.057 49.749 89.0641 49.5907 90.0638L48.906 94.2637C48.858 94.5816 48.8132 94.9001 48.7717 95.2192C48.464 97.5922 48.5117 99.1042 48.8757 100.264C49.192 101.251 49.972 102.69 52.4463 104.244C54.0237 105.231 55.8697 105.299 58.123 104.17C60.463 103 63.037 100.611 65.468 97.1775C70.3777 90.2318 73.788 80.3355 73.6623 71.9933C73.502 60.6847 70.8283 54.033 67.5957 49.938C64.298 45.7537 59.9257 43.6222 55.4797 42.5093ZM21.6667 18.375C23.9652 18.375 26.1696 19.4812 27.7949 21.4504C29.4202 23.4195 30.3333 26.0902 30.3333 28.875C30.3333 31.6598 29.4202 34.3305 27.7949 36.2996C26.1696 38.2688 23.9652 39.375 21.6667 39.375C19.3681 39.375 17.1637 38.2688 15.5384 36.2996C13.9131 34.3305 13 31.6598 13 28.875C13 26.0902 13.9131 23.4195 15.5384 21.4504C17.1637 19.4812 19.3681 18.375 21.6667 18.375ZM80.1667 23.625C81.3159 23.625 82.4181 24.1781 83.2308 25.1627C84.0435 26.1473 84.5 27.4826 84.5 28.875C84.5 30.2674 84.0435 31.6027 83.2308 32.5873C82.4181 33.5719 81.3159 34.125 80.1667 34.125C79.0174 34.125 77.9152 33.5719 77.1025 32.5873C76.2899 31.6027 75.8333 30.2674 75.8333 28.875C75.8333 27.4826 76.2899 26.1473 77.1025 25.1627C77.9152 24.1781 79.0174 23.625 80.1667 23.625ZM41.1667 10.5C42.0203 10.5 42.8655 10.7037 43.6541 11.0994C44.4427 11.4952 45.1593 12.0753 45.7629 12.8065C46.3664 13.5378 46.8452 14.4059 47.1719 15.3614C47.4985 16.3168 47.6667 17.3408 47.6667 18.375C47.6667 19.4092 47.4985 20.4332 47.1719 21.3886C46.8452 22.3441 46.3664 23.2122 45.7629 23.9435C45.1593 24.6747 44.4427 25.2548 43.6541 25.6506C42.8655 26.0463 42.0203 26.25 41.1667 26.25C39.4428 26.25 37.7895 25.4203 36.5705 23.9435C35.3515 22.4666 34.6667 20.4636 34.6667 18.375C34.6667 16.2864 35.3515 14.2834 36.5705 12.8065C37.7895 11.3297 39.4428 10.5 41.1667 10.5ZM62.8333 10.5C63.6869 10.5 64.5322 10.7037 65.3208 11.0994C66.1094 11.4952 66.826 12.0753 67.4295 12.8065C68.0331 13.5378 68.5119 14.4059 68.8386 15.3614C69.1652 16.3168 69.3333 17.3408 69.3333 18.375C69.3333 19.4092 69.1652 20.4332 68.8386 21.3886C68.5119 22.3441 68.0331 23.2122 67.4295 23.9435C66.826 24.6747 66.1094 25.2548 65.3208 25.6506C64.5322 26.0463 63.6869 26.25 62.8333 26.25C61.1094 26.25 59.4561 25.4203 58.2371 23.9435C57.0182 22.4666 56.3333 20.4636 56.3333 18.375C56.3333 16.2864 57.0182 14.2834 58.2371 12.8065C59.4561 11.3297 61.1094 10.5 62.8333 10.5Z" fill="#5A62AA"/>
</g>
<defs>
<clipPath id="clip0_553_50">
<rect width="104" height="126" fill="white"/>
</clipPath>
</defs>
</svg>
