<svg width="80" height="80" viewBox="0 0 80 80" fill="none" xmlns="http://www.w3.org/2000/svg">
<path d="M76.125 43.8898C75.928 44.0375 75.7039 44.145 75.4653 44.2061C75.2268 44.2672 74.9786 44.2808 74.7348 44.2459C74.4911 44.2111 74.2566 44.1286 74.0447 44.0032C73.8328 43.8777 73.6477 43.7118 73.5 43.5148C71.9353 41.4114 69.8985 39.7047 67.5537 38.5323C65.2089 37.3599 62.6216 36.7545 60 36.7648C59.5027 36.7648 59.0258 36.5672 58.6742 36.2156C58.3225 35.864 58.125 35.3871 58.125 34.8898C58.125 34.3925 58.3225 33.9156 58.6742 33.5639C59.0258 33.2123 59.5027 33.0148 60 33.0148C61.5196 33.0144 63.0086 32.588 64.298 31.7838C65.5873 30.9797 66.6253 29.8301 67.2941 28.4656C67.9629 27.1011 68.2356 25.5764 68.0812 24.0646C67.9269 22.5529 67.3518 21.1148 66.4211 19.9136C65.4904 18.7123 64.2415 17.7962 62.8163 17.2691C61.391 16.7421 59.8465 16.6253 58.3582 16.932C56.8699 17.2387 55.4975 17.9567 54.3968 19.0043C53.296 20.0519 52.5111 21.3872 52.1313 22.8585C52.0069 23.3401 51.6964 23.7525 51.268 24.0051C50.8396 24.2577 50.3284 24.3297 49.8469 24.2054C49.3653 24.0811 48.9529 23.7706 48.7003 23.3422C48.4477 22.9138 48.3757 22.4026 48.5 21.921C48.9713 20.088 49.8739 18.3942 51.1326 16.9807C52.3913 15.5673 53.9696 14.4752 55.736 13.7954C57.5024 13.1157 59.4056 12.868 61.2871 13.073C63.1687 13.278 64.9739 13.9297 66.5525 14.9739C68.131 16.0181 69.4371 17.4245 70.3619 19.0758C71.2866 20.7272 71.8033 22.5756 71.8688 24.4672C71.9343 26.3587 71.5467 28.2385 70.7384 29.9498C69.9301 31.6612 68.7244 33.1545 67.2219 34.3054C70.9192 35.6851 74.1405 38.1014 76.5 41.2648C76.6477 41.4618 76.7552 41.6859 76.8163 41.9244C76.8774 42.163 76.891 42.4112 76.8562 42.6549C76.8213 42.8987 76.7388 43.1332 76.6134 43.3451C76.4879 43.5569 76.322 43.742 76.125 43.8898ZM59.1219 63.9523C59.2453 64.1655 59.3254 64.4008 59.3578 64.645C59.3902 64.8892 59.3741 65.1373 59.3106 65.3753C59.247 65.6133 59.1372 65.8364 58.9874 66.0319C58.8376 66.2274 58.6507 66.3915 58.4375 66.5148C58.1532 66.6814 57.8295 66.7688 57.5 66.7679C57.1707 66.7681 56.8471 66.6816 56.5618 66.517C56.2766 66.3524 56.0397 66.1156 55.875 65.8304C54.2452 63.069 51.9234 60.7805 49.1389 59.1906C46.3544 57.6007 43.2033 56.7645 39.9969 56.7645C36.7904 56.7645 33.6394 57.6007 30.8549 59.1906C28.0703 60.7805 25.7486 63.069 24.1187 65.8304C24.0015 66.0545 23.8402 66.2525 23.6445 66.4126C23.4487 66.5727 23.2226 66.6916 22.9798 66.762C22.7369 66.8325 22.4823 66.8531 22.2313 66.8226C21.9802 66.7921 21.7379 66.7112 21.519 66.5846C21.3001 66.4581 21.109 66.2885 20.9573 66.0862C20.8056 65.8839 20.6963 65.653 20.6362 65.4074C20.576 65.1618 20.5662 64.9065 20.6072 64.657C20.6482 64.4074 20.7393 64.1688 20.875 63.9554C23.4289 59.5674 27.4276 56.2028 32.1875 54.4366C29.5874 52.7484 27.6027 50.2648 26.5295 47.3564C25.4562 44.4479 25.3521 41.2705 26.2324 38.298C27.1128 35.3254 28.9305 32.7172 31.4145 30.8622C33.8984 29.0073 36.9155 28.0051 40.0156 28.0051C43.1158 28.0051 46.1328 29.0073 48.6168 30.8622C51.1008 32.7172 52.9185 35.3254 53.7988 38.298C54.6792 41.2705 54.575 44.4479 53.5018 47.3564C52.4286 50.2648 50.4439 52.7484 47.8438 54.4366C52.5904 56.2088 56.5761 59.5716 59.1219 63.9523ZM40 53.0148C42.1014 53.0148 44.1557 52.3916 45.9029 51.2241C47.6502 50.0566 49.012 48.3972 49.8162 46.4558C50.6204 44.5143 50.8308 42.378 50.4208 40.3169C50.0109 38.2559 48.9989 36.3627 47.513 34.8768C46.0271 33.3908 44.1339 32.3789 42.0728 31.9689C40.0118 31.559 37.8755 31.7694 35.934 32.5736C33.9925 33.3777 32.3331 34.7396 31.1656 36.4868C29.9981 38.2341 29.375 40.2883 29.375 42.3898C29.375 45.2077 30.4944 47.9102 32.487 49.9028C34.4796 51.8954 37.1821 53.0148 40 53.0148ZM21.875 34.8898C21.875 34.3925 21.6775 33.9156 21.3258 33.5639C20.9742 33.2123 20.4973 33.0148 20 33.0148C18.4806 33.0143 16.9918 32.5878 15.7026 31.7837C14.4134 30.9796 13.3755 29.8301 12.7068 28.4657C12.0381 27.1014 11.7653 25.5769 11.9195 24.0654C12.0737 22.5538 12.6486 21.1157 13.579 19.9145C14.5094 18.7133 15.7579 17.797 17.1829 17.2697C18.6079 16.7424 20.1522 16.6253 21.6404 16.9316C23.1286 17.2378 24.5011 17.9553 25.6021 19.0024C26.703 20.0495 27.4883 21.3844 27.8687 22.8554C27.9303 23.0938 28.0382 23.3178 28.1863 23.5145C28.3345 23.7113 28.5199 23.8769 28.732 24.0019C28.9441 24.127 29.1788 24.2091 29.4226 24.2434C29.6665 24.2778 29.9147 24.2638 30.1531 24.2023C30.3916 24.1407 30.6155 24.0328 30.8123 23.8847C31.009 23.7366 31.1746 23.5512 31.2997 23.339C31.4247 23.1269 31.5068 22.8922 31.5412 22.6484C31.5755 22.4045 31.5616 22.1563 31.5 21.9179C31.0287 20.0849 30.1261 18.391 28.8674 16.9776C27.6087 15.5642 26.0304 14.4721 24.264 13.7923C22.4976 13.1126 20.5944 12.8649 18.7129 13.0699C16.8313 13.2749 15.0261 13.9266 13.4475 14.9708C11.869 16.015 10.5629 17.4214 9.63814 19.0727C8.71336 20.7241 8.19669 22.5725 8.13119 24.464C8.06569 26.3556 8.45326 28.2353 9.26159 29.9467C10.0699 31.658 11.2756 33.1514 12.7781 34.3023C9.08037 35.6829 5.85903 38.1002 3.5 41.2648C3.35226 41.4618 3.24477 41.6859 3.18366 41.9244C3.12255 42.163 3.10902 42.4112 3.14384 42.6549C3.17867 42.8987 3.26116 43.1332 3.38661 43.3451C3.51206 43.5569 3.67802 43.742 3.875 43.8898C4.07198 44.0375 4.29614 44.145 4.53466 44.2061C4.77319 44.2672 5.02141 44.2808 5.26517 44.2459C5.50892 44.2111 5.74343 44.1286 5.9553 44.0032C6.16717 43.8777 6.35226 43.7118 6.5 43.5148C8.06471 41.4114 10.1015 39.7047 12.4463 38.5323C14.7911 37.3599 17.3784 36.7545 20 36.7648C20.4973 36.7648 20.9742 36.5672 21.3258 36.2156C21.6775 35.864 21.875 35.3871 21.875 34.8898Z" fill="#999999"/>
</svg>
