<svg width="30" height="30" viewBox="0 0 30 30" fill="none" xmlns="http://www.w3.org/2000/svg">
<path d="M8.75 21.25H21.25C21.5 21.25 21.6875 21.1354 21.8125 20.9063C21.9375 20.6771 21.9167 20.4583 21.75 20.25L18.3125 15.6563C18.1875 15.4896 18.0208 15.4063 17.8125 15.4063C17.6042 15.4063 17.4375 15.4896 17.3125 15.6563L14.0625 20L11.75 16.9063C11.625 16.7396 11.4583 16.6563 11.25 16.6563C11.0417 16.6563 10.875 16.7396 10.75 16.9063L8.25 20.25C8.08334 20.4583 8.0625 20.6771 8.1875 20.9063C8.3125 21.1354 8.5 21.25 8.75 21.25ZM5 26.25C4.3125 26.25 3.72375 26.005 3.23375 25.515C2.74375 25.025 2.49917 24.4367 2.5 23.75V8.75001C2.5 8.06251 2.745 7.47376 3.235 6.98376C3.725 6.49376 4.31334 6.24917 5 6.25001H8.9375L10.5 4.56251C10.7292 4.29167 11.0054 4.08834 11.3288 3.95251C11.6521 3.81667 11.99 3.74917 12.3425 3.75001H17.655C18.0092 3.75001 18.3479 3.81792 18.6713 3.95376C18.9946 4.08959 19.2704 4.29251 19.4988 4.56251L21.0625 6.25001H25C25.6875 6.25001 26.2763 6.49501 26.7663 6.98501C27.2563 7.47501 27.5008 8.06334 27.5 8.75001V23.75C27.5 24.4375 27.255 25.0263 26.765 25.5163C26.275 26.0063 25.6867 26.2508 25 26.25H5ZM25 23.75V8.75001H5V23.75H25Z" fill="#999999"/>
</svg>
