<svg width="30" height="30" viewBox="0 0 30 30" fill="none" xmlns="http://www.w3.org/2000/svg">
<path d="M17.3336 6.98634C17.3337 7.29295 17.2734 7.59657 17.1561 7.87987C17.0389 8.16317 16.867 8.42061 16.6503 8.63748C16.4335 8.85435 16.1762 9.02641 15.893 9.14383C15.6097 9.26126 15.3062 9.32174 14.9996 9.32184C14.693 9.32194 14.3893 9.26165 14.106 9.14441C13.8227 9.02717 13.5653 8.85527 13.3484 8.63854C13.1316 8.42181 12.9595 8.16448 12.8421 7.88126C12.7246 7.59803 12.6642 7.29445 12.6641 6.98784C12.6639 6.36863 12.9097 5.7747 13.3474 5.33671C13.7851 4.89872 14.3788 4.65254 14.9981 4.65234C15.6173 4.65214 16.2112 4.89794 16.6492 5.33565C17.0872 5.77336 17.3334 6.36713 17.3336 6.98634Z" fill="black"/>
<path d="M15 17.3335C16.289 17.3335 17.334 16.2886 17.334 14.9995C17.334 13.7105 16.289 12.6655 15 12.6655C13.711 12.6655 12.666 13.7105 12.666 14.9995C12.666 16.2886 13.711 17.3335 15 17.3335Z" fill="black"/>
<path d="M15 25.3477C16.289 25.3477 17.334 24.3027 17.334 23.0137C17.334 21.7247 16.289 20.6797 15 20.6797C13.711 20.6797 12.666 21.7247 12.666 23.0137C12.666 24.3027 13.711 25.3477 15 25.3477Z" fill="black"/>
</svg>
