<svg width="55" height="55" viewBox="0 0 55 55" fill="none" xmlns="http://www.w3.org/2000/svg">
<path d="M27.5114 50.4235C14.8545 50.4235 4.59473 40.1638 4.59473 27.5069C4.59473 14.85 14.8545 4.59021 27.5114 4.59021C40.1683 4.59021 50.4281 14.85 50.4281 27.5069C50.4281 40.1638 40.1683 50.4235 27.5114 50.4235ZM27.5114 45.8402C32.3737 45.8402 37.0368 43.9087 40.475 40.4705C43.9132 37.0323 45.8447 32.3692 45.8447 27.5069C45.8447 22.6446 43.9132 17.9814 40.475 14.5433C37.0368 11.1051 32.3737 9.17354 27.5114 9.17354C22.6491 9.17354 17.9859 11.1051 14.5478 14.5433C11.1096 17.9814 9.17806 22.6446 9.17806 27.5069C9.17806 32.3692 11.1096 37.0323 14.5478 40.4705C17.9859 43.9087 22.6491 45.8402 27.5114 45.8402ZM19.4906 32.0902H32.0947C32.3986 32.0902 32.6901 31.9695 32.905 31.7546C33.1198 31.5397 33.2406 31.2483 33.2406 30.9444C33.2406 30.6405 33.1198 30.349 32.905 30.1341C32.6901 29.9193 32.3986 29.7985 32.0947 29.7985H22.9281C21.4086 29.7985 19.9514 29.1949 18.8769 28.1205C17.8025 27.0461 17.1989 25.5888 17.1989 24.0694C17.1989 22.5499 17.8025 21.0927 18.8769 20.0182C19.9514 18.9438 21.4086 18.3402 22.9281 18.3402H25.2197V13.7569H29.8031V18.3402H35.5322V22.9235H22.9281C22.6242 22.9235 22.3327 23.0443 22.1178 23.2591C21.9029 23.474 21.7822 23.7655 21.7822 24.0694C21.7822 24.3733 21.9029 24.6647 22.1178 24.8796C22.3327 25.0945 22.6242 25.2152 22.9281 25.2152H32.0947C33.6142 25.2152 35.0714 25.8188 36.1459 26.8932C37.2203 27.9677 37.8239 29.4249 37.8239 30.9444C37.8239 32.4638 37.2203 33.9211 36.1459 34.9955C35.0714 36.0699 33.6142 36.6735 32.0947 36.6735H29.8031V41.2569H25.2197V36.6735H19.4906V32.0902Z" fill="#5A62AA"/>
</svg>
