<svg width="50" height="50" viewBox="0 0 50 50" fill="none" xmlns="http://www.w3.org/2000/svg">
<path d="M24.9795 4.16663C13.4795 4.16663 4.16699 13.5 4.16699 25C4.16699 36.5 13.4795 45.8333 24.9795 45.8333C36.5003 45.8333 45.8337 36.5 45.8337 25C45.8337 13.5 36.5003 4.16663 24.9795 4.16663ZM25.0003 41.6666C15.792 41.6666 8.33366 34.2083 8.33366 25C8.33366 15.7916 15.792 8.33329 25.0003 8.33329C34.2087 8.33329 41.667 15.7916 41.667 25C41.667 34.2083 34.2087 41.6666 25.0003 41.6666ZM26.042 14.5833H22.917V27.0833L33.8545 33.6458L35.417 31.0833L26.042 25.5208V14.5833Z" fill="#5A62AA"/>
</svg>
