<svg width="24" height="24" viewBox="0 0 24 24" fill="none" xmlns="http://www.w3.org/2000/svg">
<path d="M2.2002 16.06L3.8802 12L2.2002 7.93995L6.2602 6.25995L7.9402 2.19995L12.0002 3.87995L16.0602 2.19995L17.7402 6.25995L21.8002 7.93995L20.1202 12L21.8002 16.06L17.7402 17.74L16.0602 21.7999L12.0002 20.12L7.9402 21.7999L6.2602 17.74L2.2002 16.06ZM4.8102 8.99995L6.0502 12L4.8102 15L7.7902 16.21L9.0002 19.19L12.0002 17.95L15.0002 19.19L16.2102 16.21L19.1902 15L17.9502 12L19.1902 8.99995L16.2102 7.78995L15.0002 4.80995L12.0002 6.04995L9.0002 4.80995L7.7902 7.78995L4.8102 8.99995ZM11.0002 15H13.0002V17H11.0002V15ZM11.0002 6.99995H13.0002V13H11.0002V6.99995Z" fill="black"/>
</svg>
