<svg width="100" height="100" viewBox="0 0 100 100" fill="none" xmlns="http://www.w3.org/2000/svg">
<path d="M45.8335 29.1667C45.8335 29.1667 40.2085 40.1938 37.5002 54.1667C34.7918 68.1396 35.4168 87.5 35.4168 87.5M70.7356 48.4833C71.4564 48.9625 72.596 49.2979 73.7106 49.5313C75.6522 49.9354 77.4439 48.6021 77.3939 46.6208C77.3001 42.925 75.8585 36.8813 68.5231 32.0083C61.596 27.4104 54.7189 27.3458 50.3814 28.0083C47.9085 28.3833 46.9231 31.0875 48.3439 33.1479C49.6106 34.9875 51.0856 36.8438 52.0835 37.2C54.1668 37.9396 56.6731 35.9875 58.5002 37.2C60.3252 38.4104 59.7814 41.2104 61.6085 42.4229C63.4335 43.6354 65.8022 42.0479 67.6293 43.2604C69.4522 44.4729 68.9106 47.2708 70.7356 48.4833Z" stroke="white" stroke-width="4" stroke-linecap="round" stroke-linejoin="round"/>
<path d="M41.6666 35.4167C43.4541 34.8208 44.5604 32.8625 45.1791 31.2938C45.6916 29.9979 45.2333 28.5688 44.0333 27.8604C41.3354 26.2646 35.5749 24.0813 26.5874 26.6917C17.702 29.2708 15.3583 35.1417 14.7604 38.5979C14.6907 38.9752 14.7002 39.3628 14.7882 39.7362C14.8762 40.1096 15.0407 40.4606 15.2714 40.7671C15.5021 41.0736 15.7939 41.3288 16.1284 41.5167C16.4629 41.7045 16.8327 41.8209 17.2145 41.8583C18.3812 41.9896 19.6645 41.9313 20.4312 41.2813C22.1124 39.8542 22.5666 37.9854 24.4458 37.4813C26.3229 36.9792 27.9437 39.2688 29.8208 38.7646C31.6999 38.2625 31.9583 35.4688 33.8354 34.9646C35.7145 34.4625 38.5416 36.4583 41.6666 35.4167ZM56.2499 12.5C51.0416 14.5833 45.8333 25 45.8333 29.1667L72.9166 16.6667C70.0416 11.6854 61.4583 10.4167 56.2499 12.5Z" stroke="white" stroke-width="4" stroke-linecap="round" stroke-linejoin="round"/>
<path d="M41.6668 10.4167C50.0002 13.3792 48.7085 24.1854 45.8335 29.1667L20.8335 12.3375C22.9168 8.33334 33.3335 7.45626 41.6668 10.4167Z" stroke="white" stroke-width="4" stroke-linecap="round" stroke-linejoin="round"/>
<path d="M54.1667 72.9167C71.425 72.9167 81.25 76.6459 81.25 81.25C81.25 85.8542 67.2583 89.5834 50 89.5834C32.7417 89.5834 18.75 85.8542 18.75 81.25C18.75 80.125 19.5833 79.0563 21.0937 78.0771" stroke="white" stroke-width="4" stroke-linecap="round"/>
</svg>
